<svg viewBox="0 0 320 260" xmlns="http://www.w3.org/2000/svg" font-family="Verdana, sans-serif">
  <style>
    .bob { transform-origin: 160px 100px; animation: bob 2.4s ease-in-out infinite; }
    @keyframes bob {
      0%, 100% { transform: translateY(0px); }
      50% { transform: translateY(-6px); }
    }
    .eye { animation: blink 4s infinite; transform-origin: center; }
    @keyframes blink {
      0%, 92%, 100% { transform: scaleY(1); }
      95% { transform: scaleY(0.1); }
    }
  </style>

  <rect width="320" height="260" rx="16" fill="#fafafa"/>

  <path d="M 140 55 L 148 39 L 156 51 L 160 37 L 164 51 L 172 39 L 180 55 Z" fill="#ffd700" stroke="#c9a800" stroke-width="1.5"/>
  <circle class="bob" cx="160" cy="100" r="55.00000000000001" fill="#d0bfff" stroke="#a78bfa" stroke-width="3"/>
  
        <path class="eye" d="M 140 95 Q 145 88 150 95" stroke="#3a2e2e" stroke-width="3" fill="none" stroke-linecap="round"/>
        <path class="eye" d="M 170 95 Q 175 88 180 95" stroke="#3a2e2e" stroke-width="3" fill="none" stroke-linecap="round"/>
        <path d="M 146 108 Q 160 124 174 108" stroke="#3a2e2e" stroke-width="3" fill="none" stroke-linecap="round"/>
      

  <text x="160" y="182" text-anchor="middle" font-size="13" fill="#333" font-weight="bold">
    ELDER · happy
  </text>

  
    <text x="20" y="199" font-size="11" fill="#555" font-family="Verdana, sans-serif">Hunger</text>
    <rect x="20" y="205" width="160" height="10" rx="5" fill="#eee"/>
    <rect x="20" y="205" width="160" height="10" rx="5" fill="#ff9e6d"/>
    <text x="188" y="214" font-size="10" fill="#555" font-family="Verdana, sans-serif">100</text>
  
  
    <text x="20" y="221" font-size="11" fill="#555" font-family="Verdana, sans-serif">Happiness</text>
    <rect x="20" y="227" width="160" height="10" rx="5" fill="#eee"/>
    <rect x="20" y="227" width="160" height="10" rx="5" fill="#ffd166"/>
    <text x="188" y="236" font-size="10" fill="#555" font-family="Verdana, sans-serif">100</text>
  
  
    <text x="20" y="243" font-size="11" fill="#555" font-family="Verdana, sans-serif">Health</text>
    <rect x="20" y="249" width="160" height="10" rx="5" fill="#eee"/>
    <rect x="20" y="249" width="160" height="10" rx="5" fill="#6dbf6d"/>
    <text x="188" y="258" font-size="10" fill="#555" font-family="Verdana, sans-serif">100</text>
  

  <text x="308" y="18" text-anchor="end" font-size="10" fill="#999">
    streak: 95d · last commit: today
  </text>
</svg>