<svg width="720" height="300" viewBox="0 0 720 300" fill="none" xmlns="http://www.w3.org/2000/svg"><rect width="720" height="300" rx="15" fill="#0d1117" stroke="#30363d" stroke-width="1"/><text x="25" y="35" fill="#58a6ff" font-family="Segoe UI, Arial" font-size="16" font-weight="bold">Language Proficiency</text><rect x="25" y="65" width="111.0" height="32" rx="16" fill="#dea58415" stroke="#dea584" stroke-width="1.5"/><text x="40" y="86" fill="#dea584" font-family="Segoe UI, Arial" font-size="14" font-weight="bold">Rust</text><text x="86.0" y="86" fill="#dea584aa" font-family="Segoe UI, Arial" font-size="12">41.5%</text><rect x="148.0" y="65" width="85.5" height="32" rx="16" fill="#A8B9CC15" stroke="#A8B9CC" stroke-width="1.5"/><text x="163.0" y="86" fill="#A8B9CC" font-family="Segoe UI, Arial" font-size="14" font-weight="bold">C</text><text x="183.5" y="86" fill="#A8B9CCaa" font-family="Segoe UI, Arial" font-size="12">36.6%</text><rect x="245.5" y="65" width="121.0" height="32" rx="16" fill="#3572A515" stroke="#3572A5" stroke-width="1.5"/><text x="260.5" y="86" fill="#3572A5" font-family="Segoe UI, Arial" font-size="14" font-weight="bold">Python</text><text x="323.5" y="86" fill="#3572A5aa" font-family="Segoe UI, Arial" font-size="12">7.9%</text><rect x="378.5" y="65" width="104.0" height="32" rx="16" fill="#8b949e15" stroke="#8b949e" stroke-width="1.5"/><text x="393.5" y="86" fill="#8b949e" font-family="Segoe UI, Arial" font-size="14" font-weight="bold">HTML</text><text x="439.5" y="86" fill="#8b949eaa" font-family="Segoe UI, Arial" font-size="12">3.9%</text><rect x="494.5" y="65" width="95.5" height="32" rx="16" fill="#f34b7d15" stroke="#f34b7d" stroke-width="1.5"/><text x="509.5" y="86" fill="#f34b7d" font-family="Segoe UI, Arial" font-size="14" font-weight="bold">C++</text><text x="547.0" y="86" fill="#f34b7daa" font-family="Segoe UI, Arial" font-size="12">3.2%</text><rect x="25" y="110" width="112.5" height="32" rx="16" fill="#ef7a0815" stroke="#ef7a08" stroke-width="1.5"/><text x="40" y="131" fill="#ef7a08" font-family="Segoe UI, Arial" font-size="14" font-weight="bold">OCaml</text><text x="94.5" y="131" fill="#ef7a08aa" font-family="Segoe UI, Arial" font-size="12">2.8%</text><rect x="149.5" y="110" width="95.5" height="32" rx="16" fill="#8b949e15" stroke="#8b949e" stroke-width="1.5"/><text x="164.5" y="131" fill="#8b949e" font-family="Segoe UI, Arial" font-size="14" font-weight="bold">CSS</text><text x="202.0" y="131" fill="#8b949eaa" font-family="Segoe UI, Arial" font-size="12">1.5%</text><rect x="257.0" y="110" width="138.0" height="32" rx="16" fill="#6E4C1315" stroke="#6E4C13" stroke-width="1.5"/><text x="272.0" y="131" fill="#6E4C13" font-family="Segoe UI, Arial" font-size="14" font-weight="bold">Assembly</text><text x="352.0" y="131" fill="#6E4C13aa" font-family="Segoe UI, Arial" font-size="12">0.6%</text><rect x="407.0" y="110" width="87.0" height="32" rx="16" fill="#00ADD815" stroke="#00ADD8" stroke-width="1.5"/><text x="422.0" y="131" fill="#00ADD8" font-family="Segoe UI, Arial" font-size="14" font-weight="bold">Go</text><text x="451.0" y="131" fill="#00ADD8aa" font-family="Segoe UI, Arial" font-size="12">0.5%</text><rect x="506.0" y="110" width="104.0" height="32" rx="16" fill="#42ffc915" stroke="#42ffc9" stroke-width="1.5"/><text x="521.0" y="131" fill="#42ffc9" font-family="Segoe UI, Arial" font-size="14" font-weight="bold">WGSL</text><text x="567.0" y="131" fill="#42ffc9aa" font-family="Segoe UI, Arial" font-size="12">0.4%</text><rect x="25" y="155" width="112.5" height="32" rx="16" fill="#89e05115" stroke="#89e051" stroke-width="1.5"/><text x="40" y="176" fill="#89e051" font-family="Segoe UI, Arial" font-size="14" font-weight="bold">Shell</text><text x="94.5" y="176" fill="#89e051aa" font-family="Segoe UI, Arial" font-size="12">0.3%</text><rect x="149.5" y="155" width="138.0" height="32" rx="16" fill="#42781915" stroke="#427819" stroke-width="1.5"/><text x="164.5" y="176" fill="#427819" font-family="Segoe UI, Arial" font-size="14" font-weight="bold">Makefile</text><text x="244.5" y="176" fill="#427819aa" font-family="Segoe UI, Arial" font-size="12">0.3%</text><rect x="299.5" y="155" width="129.5" height="32" rx="16" fill="#5e508615" stroke="#5e5086" stroke-width="1.5"/><text x="314.5" y="176" fill="#5e5086" font-family="Segoe UI, Arial" font-size="14" font-weight="bold">Haskell</text><text x="386.0" y="176" fill="#5e5086aa" font-family="Segoe UI, Arial" font-size="12">0.2%</text><rect x="441.0" y="155" width="155.0" height="32" rx="16" fill="#f1e05a15" stroke="#f1e05a" stroke-width="1.5"/><text x="456.0" y="176" fill="#f1e05a" font-family="Segoe UI, Arial" font-size="14" font-weight="bold">JavaScript</text><text x="553.0" y="176" fill="#f1e05aaa" font-family="Segoe UI, Arial" font-size="12">0.2%</text><rect x="25" y="200" width="104.0" height="32" rx="16" fill="#31566a15" stroke="#31566a" stroke-width="1.5"/><text x="40" y="221" fill="#31566a" font-family="Segoe UI, Arial" font-size="14" font-weight="bold">Agda</text><text x="86.0" y="221" fill="#31566aaa" font-family="Segoe UI, Arial" font-size="12">0.1%</text><rect x="141.0" y="200" width="112.5" height="32" rx="16" fill="#064F8C15" stroke="#064F8C" stroke-width="1.5"/><text x="156.0" y="221" fill="#064F8C" font-family="Segoe UI, Arial" font-size="14" font-weight="bold">CMake</text><text x="210.5" y="221" fill="#064F8Caa" font-family="Segoe UI, Arial" font-size="12">0.1%</text></svg>