<svg width="720" height="300" viewBox="0 0 720 300" fill="none" xmlns="http://www.w3.org/2000/svg"><rect width="720" height="300" rx="15" fill="#0d1117" stroke="#30363d" stroke-width="1"/><text x="25" y="35" fill="#58a6ff" font-family="Segoe UI, Arial" font-size="16" font-weight="bold">Language Proficiency</text><rect x="25" y="65" width="111.0" height="32" rx="16" fill="#dea58415" stroke="#dea584" stroke-width="1.5"/><text x="40" y="86" fill="#dea584" font-family="Segoe UI, Arial" font-size="14" font-weight="bold">Rust</text><text x="86.0" y="86" fill="#dea584aa" font-family="Segoe UI, Arial" font-size="12">43.9%</text><rect x="148.0" y="65" width="85.5" height="32" rx="16" fill="#8b949e15" stroke="#8b949e" stroke-width="1.5"/><text x="163.0" y="86" fill="#8b949e" font-family="Segoe UI, Arial" font-size="14" font-weight="bold">C</text><text x="183.5" y="86" fill="#8b949eaa" font-family="Segoe UI, Arial" font-size="12">38.7%</text><rect x="245.5" y="65" width="121.0" height="32" rx="16" fill="#3572A515" stroke="#3572A5" stroke-width="1.5"/><text x="260.5" y="86" fill="#3572A5" font-family="Segoe UI, Arial" font-size="14" font-weight="bold">Python</text><text x="323.5" y="86" fill="#3572A5aa" font-family="Segoe UI, Arial" font-size="12">8.3%</text><rect x="378.5" y="65" width="95.5" height="32" rx="16" fill="#f34b7d15" stroke="#f34b7d" stroke-width="1.5"/><text x="393.5" y="86" fill="#f34b7d" font-family="Segoe UI, Arial" font-size="14" font-weight="bold">C++</text><text x="431.0" y="86" fill="#f34b7daa" font-family="Segoe UI, Arial" font-size="12">3.4%</text><rect x="486.0" y="65" width="112.5" height="32" rx="16" fill="#ef7a0815" stroke="#ef7a08" stroke-width="1.5"/><text x="501.0" y="86" fill="#ef7a08" font-family="Segoe UI, Arial" font-size="14" font-weight="bold">OCaml</text><text x="555.5" y="86" fill="#ef7a08aa" font-family="Segoe UI, Arial" font-size="12">2.9%</text><rect x="25" y="110" width="138.0" height="32" rx="16" fill="#6E4C1315" stroke="#6E4C13" stroke-width="1.5"/><text x="40" y="131" fill="#6E4C13" font-family="Segoe UI, Arial" font-size="14" font-weight="bold">Assembly</text><text x="120.0" y="131" fill="#6E4C13aa" font-family="Segoe UI, Arial" font-size="12">0.6%</text><rect x="175.0" y="110" width="87.0" height="32" rx="16" fill="#00ADD815" stroke="#00ADD8" stroke-width="1.5"/><text x="190.0" y="131" fill="#00ADD8" font-family="Segoe UI, Arial" font-size="14" font-weight="bold">Go</text><text x="219.0" y="131" fill="#00ADD8aa" font-family="Segoe UI, Arial" font-size="12">0.5%</text><rect x="274.0" y="110" width="104.0" height="32" rx="16" fill="#42ffc915" stroke="#42ffc9" stroke-width="1.5"/><text x="289.0" y="131" fill="#42ffc9" font-family="Segoe UI, Arial" font-size="14" font-weight="bold">WGSL</text><text x="335.0" y="131" fill="#42ffc9aa" font-family="Segoe UI, Arial" font-size="12">0.4%</text><rect x="390.0" y="110" width="112.5" height="32" rx="16" fill="#89e05115" stroke="#89e051" stroke-width="1.5"/><text x="405.0" y="131" fill="#89e051" font-family="Segoe UI, Arial" font-size="14" font-weight="bold">Shell</text><text x="459.5" y="131" fill="#89e051aa" font-family="Segoe UI, Arial" font-size="12">0.3%</text><rect x="514.5" y="110" width="138.0" height="32" rx="16" fill="#42781915" stroke="#427819" stroke-width="1.5"/><text x="529.5" y="131" fill="#427819" font-family="Segoe UI, Arial" font-size="14" font-weight="bold">Makefile</text><text x="609.5" y="131" fill="#427819aa" font-family="Segoe UI, Arial" font-size="12">0.3%</text><rect x="25" y="155" width="129.5" height="32" rx="16" fill="#5e508615" stroke="#5e5086" stroke-width="1.5"/><text x="40" y="176" fill="#5e5086" font-family="Segoe UI, Arial" font-size="14" font-weight="bold">Haskell</text><text x="111.5" y="176" fill="#5e5086aa" font-family="Segoe UI, Arial" font-size="12">0.2%</text><rect x="166.5" y="155" width="155.0" height="32" rx="16" fill="#f1e05a15" stroke="#f1e05a" stroke-width="1.5"/><text x="181.5" y="176" fill="#f1e05a" font-family="Segoe UI, Arial" font-size="14" font-weight="bold">JavaScript</text><text x="278.5" y="176" fill="#f1e05aaa" font-family="Segoe UI, Arial" font-size="12">0.2%</text><rect x="333.5" y="155" width="104.0" height="32" rx="16" fill="#31566a15" stroke="#31566a" stroke-width="1.5"/><text x="348.5" y="176" fill="#31566a" font-family="Segoe UI, Arial" font-size="14" font-weight="bold">Agda</text><text x="394.5" y="176" fill="#31566aaa" font-family="Segoe UI, Arial" font-size="12">0.1%</text><rect x="449.5" y="155" width="112.5" height="32" rx="16" fill="#064F8C15" stroke="#064F8C" stroke-width="1.5"/><text x="464.5" y="176" fill="#064F8C" font-family="Segoe UI, Arial" font-size="14" font-weight="bold">CMake</text><text x="519.0" y="176" fill="#064F8Caa" font-family="Segoe UI, Arial" font-size="12">0.1%</text><rect x="25" y="200" width="163.5" height="32" rx="16" fill="#7d503f15" stroke="#7d503f" stroke-width="1.5"/><text x="40" y="221" fill="#7d503f" font-family="Segoe UI, Arial" font-size="14" font-weight="bold">Rocq Prover</text><text x="145.5" y="221" fill="#7d503faa" font-family="Segoe UI, Arial" font-size="12">0.1%</text></svg>