<svg viewBox="0 0 320 296" xmlns="http://www.w3.org/2000/svg" font-family="Verdana, sans-serif" shape-rendering="crispEdges">
  <style>
    .critter { transform-origin: 160px 110px; animation: bob 2.4s ease-in-out infinite; }
    @keyframes bob {
      0%, 100% { transform: translateY(0px); }
      50% { transform: translateY(-4px); }
    }
    .eye { animation: blink 4s infinite; transform-origin: center; }
    @keyframes blink {
      0%, 92%, 100% { transform: scaleY(1); }
      95% { transform: scaleY(0.15); }
    }
  </style>

  <rect width="320" height="296" rx="16" fill="#fafafa"/>

  <ellipse cx="160" cy="184" rx="49.98" ry="6" fill="#000" opacity="0.06"/>

  <g class="critter">
    <rect x="134.5" y="42" width="8.5" height="8.5" fill="#8a6fd9"/><rect x="143" y="42" width="8.5" height="8.5" fill="#8a6fd9"/><rect x="151.5" y="42" width="8.5" height="8.5" fill="#8a6fd9"/><rect x="160" y="42" width="8.5" height="8.5" fill="#8a6fd9"/><rect x="168.5" y="42" width="8.5" height="8.5" fill="#8a6fd9"/><rect x="177" y="42" width="8.5" height="8.5" fill="#8a6fd9"/><rect x="117.5" y="50.5" width="8.5" height="8.5" fill="#8a6fd9"/><rect x="126" y="50.5" width="8.5" height="8.5" fill="#8a6fd9"/><rect x="134.5" y="50.5" width="8.5" height="8.5" fill="#d0bfff"/><rect x="143" y="50.5" width="8.5" height="8.5" fill="#d0bfff"/><rect x="151.5" y="50.5" width="8.5" height="8.5" fill="#d0bfff"/><rect x="160" y="50.5" width="8.5" height="8.5" fill="#d0bfff"/><rect x="168.5" y="50.5" width="8.5" height="8.5" fill="#d0bfff"/><rect x="177" y="50.5" width="8.5" height="8.5" fill="#d0bfff"/><rect x="185.5" y="50.5" width="8.5" height="8.5" fill="#8a6fd9"/><rect x="194" y="50.5" width="8.5" height="8.5" fill="#8a6fd9"/><rect x="109" y="59" width="8.5" height="8.5" fill="#8a6fd9"/><rect x="117.5" y="59" width="8.5" height="8.5" fill="#d0bfff"/><rect x="126" y="59" width="8.5" height="8.5" fill="#d0bfff"/><rect x="134.5" y="59" width="8.5" height="8.5" fill="#d0bfff"/><rect x="143" y="59" width="8.5" height="8.5" fill="#d0bfff"/><rect x="151.5" y="59" width="8.5" height="8.5" fill="#d0bfff"/><rect x="160" y="59" width="8.5" height="8.5" fill="#d0bfff"/><rect x="168.5" y="59" width="8.5" height="8.5" fill="#d0bfff"/><rect x="177" y="59" width="8.5" height="8.5" fill="#d0bfff"/><rect x="185.5" y="59" width="8.5" height="8.5" fill="#d0bfff"/><rect x="194" y="59" width="8.5" height="8.5" fill="#d0bfff"/><rect x="202.5" y="59" width="8.5" height="8.5" fill="#8a6fd9"/><rect x="100.5" y="67.5" width="8.5" height="8.5" fill="#8a6fd9"/><rect x="109" y="67.5" width="8.5" height="8.5" fill="#d0bfff"/><rect x="117.5" y="67.5" width="8.5" height="8.5" fill="#d0bfff"/><rect x="126" y="67.5" width="8.5" height="8.5" fill="#d0bfff"/><rect x="134.5" y="67.5" width="8.5" height="8.5" fill="#d0bfff"/><rect x="143" y="67.5" width="8.5" height="8.5" fill="#d0bfff"/><rect x="151.5" y="67.5" width="8.5" height="8.5" fill="#d0bfff"/><rect x="160" y="67.5" width="8.5" height="8.5" fill="#d0bfff"/><rect x="168.5" y="67.5" width="8.5" height="8.5" fill="#d0bfff"/><rect x="177" y="67.5" width="8.5" height="8.5" fill="#d0bfff"/><rect x="185.5" y="67.5" width="8.5" height="8.5" fill="#d0bfff"/><rect x="194" y="67.5" width="8.5" height="8.5" fill="#d0bfff"/><rect x="202.5" y="67.5" width="8.5" height="8.5" fill="#d0bfff"/><rect x="211" y="67.5" width="8.5" height="8.5" fill="#8a6fd9"/><rect x="100.5" y="76" width="8.5" height="8.5" fill="#8a6fd9"/><rect x="109" y="76" width="8.5" height="8.5" fill="#d0bfff"/><rect x="117.5" y="76" width="8.5" height="8.5" fill="#d0bfff"/><rect x="126" y="76" width="8.5" height="8.5" fill="#d0bfff"/><rect x="134.5" y="76" width="8.5" height="8.5" fill="#d0bfff"/><rect x="143" y="76" width="8.5" height="8.5" fill="#d0bfff"/><rect x="151.5" y="76" width="8.5" height="8.5" fill="#d0bfff"/><rect x="160" y="76" width="8.5" height="8.5" fill="#d0bfff"/><rect x="168.5" y="76" width="8.5" height="8.5" fill="#d0bfff"/><rect x="177" y="76" width="8.5" height="8.5" fill="#d0bfff"/><rect x="185.5" y="76" width="8.5" height="8.5" fill="#d0bfff"/><rect x="194" y="76" width="8.5" height="8.5" fill="#d0bfff"/><rect x="202.5" y="76" width="8.5" height="8.5" fill="#d0bfff"/><rect x="211" y="76" width="8.5" height="8.5" fill="#8a6fd9"/><rect x="100.5" y="84.5" width="8.5" height="8.5" fill="#8a6fd9"/><rect x="109" y="84.5" width="8.5" height="8.5" fill="#ece4ff"/><rect x="117.5" y="84.5" width="8.5" height="8.5" fill="#d0bfff"/><rect x="126" y="84.5" width="8.5" height="8.5" fill="#d0bfff"/><rect x="134.5" y="84.5" width="8.5" height="8.5" fill="#d0bfff"/><rect x="143" y="84.5" width="8.5" height="8.5" fill="#d0bfff"/><rect x="151.5" y="84.5" width="8.5" height="8.5" fill="#d0bfff"/><rect x="160" y="84.5" width="8.5" height="8.5" fill="#d0bfff"/><rect x="168.5" y="84.5" width="8.5" height="8.5" fill="#d0bfff"/><rect x="177" y="84.5" width="8.5" height="8.5" fill="#d0bfff"/><rect x="185.5" y="84.5" width="8.5" height="8.5" fill="#d0bfff"/><rect x="194" y="84.5" width="8.5" height="8.5" fill="#d0bfff"/><rect x="202.5" y="84.5" width="8.5" height="8.5" fill="#ece4ff"/><rect x="211" y="84.5" width="8.5" height="8.5" fill="#8a6fd9"/><rect x="100.5" y="93" width="8.5" height="8.5" fill="#8a6fd9"/><rect x="109" y="93" width="8.5" height="8.5" fill="#d0bfff"/><rect x="117.5" y="93" width="8.5" height="8.5" fill="#d0bfff"/><rect x="126" y="93" width="8.5" height="8.5" fill="#d0bfff"/><rect x="134.5" y="93" width="8.5" height="8.5" fill="#d0bfff"/><rect x="143" y="93" width="8.5" height="8.5" fill="#d0bfff"/><rect x="151.5" y="93" width="8.5" height="8.5" fill="#d0bfff"/><rect x="160" y="93" width="8.5" height="8.5" fill="#d0bfff"/><rect x="168.5" y="93" width="8.5" height="8.5" fill="#d0bfff"/><rect x="177" y="93" width="8.5" height="8.5" fill="#d0bfff"/><rect x="185.5" y="93" width="8.5" height="8.5" fill="#d0bfff"/><rect x="194" y="93" width="8.5" height="8.5" fill="#d0bfff"/><rect x="202.5" y="93" width="8.5" height="8.5" fill="#d0bfff"/><rect x="211" y="93" width="8.5" height="8.5" fill="#8a6fd9"/><rect x="100.5" y="101.5" width="8.5" height="8.5" fill="#8a6fd9"/><rect x="109" y="101.5" width="8.5" height="8.5" fill="#d0bfff"/><rect x="117.5" y="101.5" width="8.5" height="8.5" fill="#d0bfff"/><rect x="126" y="101.5" width="8.5" height="8.5" fill="#d0bfff"/><rect x="134.5" y="101.5" width="8.5" height="8.5" fill="#d0bfff"/><rect x="143" y="101.5" width="8.5" height="8.5" fill="#d0bfff"/><rect x="151.5" y="101.5" width="8.5" height="8.5" fill="#d0bfff"/><rect x="160" y="101.5" width="8.5" height="8.5" fill="#d0bfff"/><rect x="168.5" y="101.5" width="8.5" height="8.5" fill="#d0bfff"/><rect x="177" y="101.5" width="8.5" height="8.5" fill="#d0bfff"/><rect x="185.5" y="101.5" width="8.5" height="8.5" fill="#d0bfff"/><rect x="194" y="101.5" width="8.5" height="8.5" fill="#d0bfff"/><rect x="202.5" y="101.5" width="8.5" height="8.5" fill="#d0bfff"/><rect x="211" y="101.5" width="8.5" height="8.5" fill="#8a6fd9"/><rect x="100.5" y="110" width="8.5" height="8.5" fill="#8a6fd9"/><rect x="109" y="110" width="8.5" height="8.5" fill="#d0bfff"/><rect x="117.5" y="110" width="8.5" height="8.5" fill="#d0bfff"/><rect x="126" y="110" width="8.5" height="8.5" fill="#d0bfff"/><rect x="134.5" y="110" width="8.5" height="8.5" fill="#d0bfff"/><rect x="143" y="110" width="8.5" height="8.5" fill="#d0bfff"/><rect x="151.5" y="110" width="8.5" height="8.5" fill="#d0bfff"/><rect x="160" y="110" width="8.5" height="8.5" fill="#d0bfff"/><rect x="168.5" y="110" width="8.5" height="8.5" fill="#d0bfff"/><rect x="177" y="110" width="8.5" height="8.5" fill="#d0bfff"/><rect x="185.5" y="110" width="8.5" height="8.5" fill="#d0bfff"/><rect x="194" y="110" width="8.5" height="8.5" fill="#d0bfff"/><rect x="202.5" y="110" width="8.5" height="8.5" fill="#d0bfff"/><rect x="211" y="110" width="8.5" height="8.5" fill="#8a6fd9"/><rect x="100.5" y="118.5" width="8.5" height="8.5" fill="#8a6fd9"/><rect x="109" y="118.5" width="8.5" height="8.5" fill="#d0bfff"/><rect x="117.5" y="118.5" width="8.5" height="8.5" fill="#d0bfff"/><rect x="126" y="118.5" width="8.5" height="8.5" fill="#d0bfff"/><rect x="134.5" y="118.5" width="8.5" height="8.5" fill="#d0bfff"/><rect x="143" y="118.5" width="8.5" height="8.5" fill="#d0bfff"/><rect x="151.5" y="118.5" width="8.5" height="8.5" fill="#d0bfff"/><rect x="160" y="118.5" width="8.5" height="8.5" fill="#d0bfff"/><rect x="168.5" y="118.5" width="8.5" height="8.5" fill="#d0bfff"/><rect x="177" y="118.5" width="8.5" height="8.5" fill="#d0bfff"/><rect x="185.5" y="118.5" width="8.5" height="8.5" fill="#d0bfff"/><rect x="194" y="118.5" width="8.5" height="8.5" fill="#d0bfff"/><rect x="202.5" y="118.5" width="8.5" height="8.5" fill="#d0bfff"/><rect x="211" y="118.5" width="8.5" height="8.5" fill="#8a6fd9"/><rect x="100.5" y="127" width="8.5" height="8.5" fill="#8a6fd9"/><rect x="109" y="127" width="8.5" height="8.5" fill="#d0bfff"/><rect x="117.5" y="127" width="8.5" height="8.5" fill="#d0bfff"/><rect x="126" y="127" width="8.5" height="8.5" fill="#d0bfff"/><rect x="134.5" y="127" width="8.5" height="8.5" fill="#d0bfff"/><rect x="143" y="127" width="8.5" height="8.5" fill="#d0bfff"/><rect x="151.5" y="127" width="8.5" height="8.5" fill="#d0bfff"/><rect x="160" y="127" width="8.5" height="8.5" fill="#d0bfff"/><rect x="168.5" y="127" width="8.5" height="8.5" fill="#d0bfff"/><rect x="177" y="127" width="8.5" height="8.5" fill="#d0bfff"/><rect x="185.5" y="127" width="8.5" height="8.5" fill="#d0bfff"/><rect x="194" y="127" width="8.5" height="8.5" fill="#d0bfff"/><rect x="202.5" y="127" width="8.5" height="8.5" fill="#d0bfff"/><rect x="211" y="127" width="8.5" height="8.5" fill="#8a6fd9"/><rect x="100.5" y="135.5" width="8.5" height="8.5" fill="#8a6fd9"/><rect x="109" y="135.5" width="8.5" height="8.5" fill="#d0bfff"/><rect x="117.5" y="135.5" width="8.5" height="8.5" fill="#d0bfff"/><rect x="126" y="135.5" width="8.5" height="8.5" fill="#d0bfff"/><rect x="134.5" y="135.5" width="8.5" height="8.5" fill="#d0bfff"/><rect x="143" y="135.5" width="8.5" height="8.5" fill="#d0bfff"/><rect x="151.5" y="135.5" width="8.5" height="8.5" fill="#d0bfff"/><rect x="160" y="135.5" width="8.5" height="8.5" fill="#d0bfff"/><rect x="168.5" y="135.5" width="8.5" height="8.5" fill="#d0bfff"/><rect x="177" y="135.5" width="8.5" height="8.5" fill="#d0bfff"/><rect x="185.5" y="135.5" width="8.5" height="8.5" fill="#d0bfff"/><rect x="194" y="135.5" width="8.5" height="8.5" fill="#d0bfff"/><rect x="202.5" y="135.5" width="8.5" height="8.5" fill="#d0bfff"/><rect x="211" y="135.5" width="8.5" height="8.5" fill="#8a6fd9"/><rect x="100.5" y="144" width="8.5" height="8.5" fill="#8a6fd9"/><rect x="109" y="144" width="8.5" height="8.5" fill="#d0bfff"/><rect x="117.5" y="144" width="8.5" height="8.5" fill="#d0bfff"/><rect x="126" y="144" width="8.5" height="8.5" fill="#d0bfff"/><rect x="134.5" y="144" width="8.5" height="8.5" fill="#d0bfff"/><rect x="143" y="144" width="8.5" height="8.5" fill="#d0bfff"/><rect x="151.5" y="144" width="8.5" height="8.5" fill="#d0bfff"/><rect x="160" y="144" width="8.5" height="8.5" fill="#d0bfff"/><rect x="168.5" y="144" width="8.5" height="8.5" fill="#d0bfff"/><rect x="177" y="144" width="8.5" height="8.5" fill="#d0bfff"/><rect x="185.5" y="144" width="8.5" height="8.5" fill="#d0bfff"/><rect x="194" y="144" width="8.5" height="8.5" fill="#d0bfff"/><rect x="202.5" y="144" width="8.5" height="8.5" fill="#d0bfff"/><rect x="211" y="144" width="8.5" height="8.5" fill="#8a6fd9"/><rect x="100.5" y="152.5" width="8.5" height="8.5" fill="#8a6fd9"/><rect x="109" y="152.5" width="8.5" height="8.5" fill="#d0bfff"/><rect x="117.5" y="152.5" width="8.5" height="8.5" fill="#d0bfff"/><rect x="126" y="152.5" width="8.5" height="8.5" fill="#d0bfff"/><rect x="134.5" y="152.5" width="8.5" height="8.5" fill="#d0bfff"/><rect x="143" y="152.5" width="8.5" height="8.5" fill="#d0bfff"/><rect x="151.5" y="152.5" width="8.5" height="8.5" fill="#d0bfff"/><rect x="160" y="152.5" width="8.5" height="8.5" fill="#d0bfff"/><rect x="168.5" y="152.5" width="8.5" height="8.5" fill="#d0bfff"/><rect x="177" y="152.5" width="8.5" height="8.5" fill="#d0bfff"/><rect x="185.5" y="152.5" width="8.5" height="8.5" fill="#d0bfff"/><rect x="194" y="152.5" width="8.5" height="8.5" fill="#d0bfff"/><rect x="202.5" y="152.5" width="8.5" height="8.5" fill="#d0bfff"/><rect x="211" y="152.5" width="8.5" height="8.5" fill="#8a6fd9"/><rect x="100.5" y="161" width="8.5" height="8.5" fill="#8a6fd9"/><rect x="109" y="161" width="8.5" height="8.5" fill="#d0bfff"/><rect x="117.5" y="161" width="8.5" height="8.5" fill="#d0bfff"/><rect x="126" y="161" width="8.5" height="8.5" fill="#d0bfff"/><rect x="134.5" y="161" width="8.5" height="8.5" fill="#d0bfff"/><rect x="143" y="161" width="8.5" height="8.5" fill="#d0bfff"/><rect x="151.5" y="161" width="8.5" height="8.5" fill="#d0bfff"/><rect x="160" y="161" width="8.5" height="8.5" fill="#d0bfff"/><rect x="168.5" y="161" width="8.5" height="8.5" fill="#d0bfff"/><rect x="177" y="161" width="8.5" height="8.5" fill="#d0bfff"/><rect x="185.5" y="161" width="8.5" height="8.5" fill="#d0bfff"/><rect x="194" y="161" width="8.5" height="8.5" fill="#d0bfff"/><rect x="202.5" y="161" width="8.5" height="8.5" fill="#d0bfff"/><rect x="211" y="161" width="8.5" height="8.5" fill="#8a6fd9"/><rect x="109" y="169.5" width="8.5" height="8.5" fill="#8a6fd9"/><rect x="117.5" y="169.5" width="8.5" height="8.5" fill="#8a6fd9"/><rect x="126" y="169.5" width="8.5" height="8.5" fill="#8a6fd9"/><rect x="134.5" y="169.5" width="8.5" height="8.5" fill="#8a6fd9"/><rect x="143" y="169.5" width="8.5" height="8.5" fill="#8a6fd9"/><rect x="151.5" y="169.5" width="8.5" height="8.5" fill="#8a6fd9"/><rect x="160" y="169.5" width="8.5" height="8.5" fill="#8a6fd9"/><rect x="168.5" y="169.5" width="8.5" height="8.5" fill="#8a6fd9"/><rect x="177" y="169.5" width="8.5" height="8.5" fill="#8a6fd9"/><rect x="185.5" y="169.5" width="8.5" height="8.5" fill="#8a6fd9"/><rect x="194" y="169.5" width="8.5" height="8.5" fill="#8a6fd9"/><rect x="202.5" y="169.5" width="8.5" height="8.5" fill="#8a6fd9"/>
    
      <path d="M 141.3 38.6 L 148.95 23.3 L 156.6 34.35 L 160 21.6 L 163.4 34.35 L 171.05 23.3 L 178.7 38.6 Z" fill="#ffd700" stroke="#c9a800" stroke-width="1.5"/>
      <rect x="150.65" y="127" width="18.700000000000003" height="11.899999999999999" rx="3.4000000000000004" fill="#ece4ff" opacity="0.85"/>
    
    
      <rect x="131.27" y="86.795" width="3.825" height="3.825" fill="#3a2e2e"/>
      <rect x="133.94750000000002" y="84.5" width="3.825" height="3.825" fill="#3a2e2e"/>
      <rect x="136.625" y="86.795" width="3.825" height="3.825" fill="#3a2e2e"/>
    
      <rect x="177.17" y="86.795" width="3.825" height="3.825" fill="#3a2e2e"/>
      <rect x="179.8475" y="84.5" width="3.825" height="3.825" fill="#3a2e2e"/>
      <rect x="182.52499999999998" y="86.795" width="3.825" height="3.825" fill="#3a2e2e"/>
    
    
      <rect x="145.55" y="118.5" width="28.9" height="4.25" fill="#3a2e2e"/>
      <rect x="141.3" y="114.25" width="4.25" height="4.25" fill="#3a2e2e"/>
      <rect x="174.45" y="114.25" width="4.25" height="4.25" fill="#3a2e2e"/>
    
  </g>

  <text x="160" y="200" text-anchor="middle" font-size="13" fill="#333" font-weight="bold">
    ELDER · happy
  </text>

  
    <text x="20" y="208" font-size="11" fill="#555" font-family="Verdana, sans-serif">Hunger</text>
    <rect x="20" y="214" width="160" height="10" rx="5" fill="#eee"/>
    <rect x="20" y="214" width="160" height="10" rx="5" fill="#ff9e6d"/>
    <text x="188" y="223" font-size="10" fill="#555" font-family="Verdana, sans-serif">100</text>
  
  
    <text x="20" y="234" font-size="11" fill="#555" font-family="Verdana, sans-serif">Happiness</text>
    <rect x="20" y="240" width="160" height="10" rx="5" fill="#eee"/>
    <rect x="20" y="240" width="160" height="10" rx="5" fill="#ffd166"/>
    <text x="188" y="249" font-size="10" fill="#555" font-family="Verdana, sans-serif">100</text>
  
  
    <text x="20" y="260" font-size="11" fill="#555" font-family="Verdana, sans-serif">Health</text>
    <rect x="20" y="266" width="160" height="10" rx="5" fill="#eee"/>
    <rect x="20" y="266" width="160" height="10" rx="5" fill="#6dbf6d"/>
    <text x="188" y="275" font-size="10" fill="#555" font-family="Verdana, sans-serif">100</text>
  

  <text x="308" y="18" text-anchor="end" font-size="10" fill="#999">
    streak: 95d · last commit: today
  </text>
</svg>